HIERARCHY
ROOT Hips
{
 OFFSET 0.000000 0.000000 0.000000
 CHANNELS 6 Xposition Yposition Zposition Yrotation Xrotation Zrotation
 JOINT Chest
 {
  OFFSET 0.000000 0.087911 -0.065546
  CHANNELS 3 Yrotation Xrotation Zrotation
  JOINT Chest2
  {
   OFFSET 0.000000 0.074094 -0.000050
   CHANNELS 3 Yrotation Xrotation Zrotation
   JOINT Chest3
   {
    OFFSET 0.000000 0.105900 0.000026
    CHANNELS 3 Yrotation Xrotation Zrotation
    JOINT Chest4
    {
     OFFSET 0.000000 0.109216 0.000029
     CHANNELS 3 Yrotation Xrotation Zrotation
     JOINT Neck
     {
      OFFSET 0.000000 0.176282 -0.000024
      CHANNELS 3 Yrotation Xrotation Zrotation
      JOINT Head
      {
       OFFSET 0.000000 0.090319 0.000000
       CHANNELS 3 Yrotation Xrotation Zrotation
       End Site
       {
        OFFSET 0.000000 0.131706 0.000000
       }
      }
     }
     JOINT RightCollar
     {
      OFFSET -0.028133 0.110139 -0.000012
      CHANNELS 3 Yrotation Xrotation Zrotation
      JOINT RightShoulder
      {
       OFFSET -0.158561 0.000000 0.000000
       CHANNELS 3 Yrotation Xrotation Zrotation
       JOINT RightElbow
       {
        OFFSET -0.265160 0.000000 0.000000
        CHANNELS 3 Yrotation Xrotation Zrotation
        JOINT RightWrist
        {
         OFFSET -0.239129 0.000000 -0.000016
         CHANNELS 3 Yrotation Xrotation Zrotation
         End Site
         {
          OFFSET -0.175082 0.006533 0.000975
         }
        }
       }
      }
     }
     JOINT LeftCollar
     {
      OFFSET 0.028133 0.110139 -0.000012
      CHANNELS 3 Yrotation Xrotation Zrotation
      JOINT LeftShoulder
      {
       OFFSET 0.158561 0.000000 0.000000
       CHANNELS 3 Yrotation Xrotation Zrotation
       JOINT LeftElbow
       {
        OFFSET 0.265160 0.000000 0.000000
        CHANNELS 3 Yrotation Xrotation Zrotation
        JOINT LeftWrist
        {
         OFFSET 0.239129 0.000000 -0.000016
         CHANNELS 3 Yrotation Xrotation Zrotation
         End Site
         {
          OFFSET 0.175082 0.006533 0.000975
         }
        }
       }
      }
     }
    }
   }
  }
 }
 JOINT RightHip
 {
  OFFSET -0.094771 -0.000069 0.000011
  CHANNELS 3 Yrotation Xrotation Zrotation
  JOINT RightKnee
  {
   OFFSET 0.000000 -0.475024 0.000100
   CHANNELS 3 Yrotation Xrotation Zrotation
   JOINT RightAnkle
   {
    OFFSET 0.000000 -0.411622 0.001356
    CHANNELS 3 Yrotation Xrotation Zrotation
    JOINT RightToe
    {
     OFFSET 0.000000 -0.086895 0.180760
     CHANNELS 3 Yrotation Xrotation Zrotation
     End Site
     {
      OFFSET 0.000000 -0.009624 0.045094
     }
    }
   }
  }
 }
 JOINT LeftHip
 {
  OFFSET 0.094771 -0.000091 0.000014
  CHANNELS 3 Yrotation Xrotation Zrotation
  JOINT LeftKnee
  {
   OFFSET 0.000000 -0.475024 0.000100
   CHANNELS 3 Yrotation Xrotation Zrotation
   JOINT LeftAnkle
   {
    OFFSET 0.000000 -0.411622 0.001356
    CHANNELS 3 Yrotation Xrotation Zrotation
    JOINT LeftToe
    {
     OFFSET 0.000000 -0.086895 0.180760
     CHANNELS 3 Yrotation Xrotation Zrotation
     End Site
     {
      OFFSET 0.000000 -0.009624 0.045094
     }
    }
   }
  }
 }
}
MOTION
Frames: 15
Frame Time: 0.004167
0.221269 0.980809 0.909142 4.363981 -4.210599 0.720674 5.377142 11.971241 1.619602 2.403193 -4.561432 0.587148 1.678941 4.114895 0.673471 0.500076 9.078132 0.179795 -6.572306 3.898677 1.280989 -12.169763 7.338311 2.021693 2.196211 -3.633094 6.564590 19.479855 -32.567445 67.530892 8.455053 -1.811167 2.049970 6.487361 -1.810118 -1.177570 -0.070284 -7.503887 -8.061232 -5.026844 -8.887546 -74.953583 -18.145535 -0.026789 -3.075544 -9.996773 0.142384 4.788457 -10.063740 -7.919259 4.196433 3.888393 18.442725 -0.854347 2.759845 -5.623934 -0.860060 0.000000 0.000000 0.000000 2.959291 -31.987443 -2.040804 3.758260 22.280592 2.799493 -7.152284 -2.493974 -7.765324 -0.000000 -0.000000 0.000000
0.221917 0.980858 0.909919 4.319328 -4.153288 0.728515 5.296257 11.921429 1.591811 2.367260 -4.637272 0.576785 1.653635 4.089024 0.663634 0.492671 9.095633 0.177256 -6.549390 3.906819 1.278389 -12.127217 7.352892 2.017420 2.154270 -3.592819 6.598668 19.239995 -32.388543 67.728508 8.408585 -1.787486 2.100558 6.491986 -1.816397 -1.158639 -0.070070 -7.495892 -8.045766 -5.013404 -8.923956 -74.981381 -18.210687 -0.034919 -3.087797 -9.947874 0.119566 4.707368 -10.014948 -7.885218 4.160854 3.964038 18.356182 -0.847920 2.672246 -5.703114 -0.786381 -0.000000 -0.000000 -0.000000 2.855146 -31.860554 -1.852597 3.827645 22.824905 2.928799 -6.803037 -2.553568 -7.649682 -0.000000 -0.000000 -0.000000
0.222572 0.980903 0.910696 4.278180 -4.093701 0.734180 5.213171 11.870424 1.564920 2.330187 -4.714593 0.566952 1.627528 4.062611 0.654013 0.485044 9.113436 0.174766 -6.525593 3.914831 1.275975 -12.083030 7.367243 2.013558 2.111252 -3.552205 6.632750 18.998220 -32.204661 67.924873 8.362088 -1.763266 2.148385 6.498348 -1.821672 -1.141744 -0.070128 -7.487913 -8.030035 -4.998567 -8.960291 -75.008664 -18.274277 -0.046206 -3.099728 -9.899538 0.096346 4.627255 -9.963611 -7.853309 4.126305 4.037632 18.269909 -0.840847 2.581525 -5.782377 -0.713488 -0.000000 0.000000 0.000000 2.758314 -31.730987 -1.666484 3.892607 23.365844 3.058039 -6.455563 -2.610516 -7.540923 0.000000 -0.000000 0.000000
0.223234 0.980944 0.911472 4.240354 -4.032194 0.737570 5.128151 11.818557 1.539032 2.292092 -4.792783 0.557683 1.600706 4.035846 0.644632 0.477218 9.131380 0.172339 -6.500899 3.922256 1.273833 -12.037166 7.380519 2.010312 2.068061 -3.511752 6.666836 18.754950 -32.015350 68.119377 8.316741 -1.740892 2.192914 6.505735 -1.825488 -1.128745 -0.070647 -7.479942 -8.014263 -4.983835 -8.996347 -75.034533 -18.335990 -0.059262 -3.111182 -9.851685 0.073163 4.547391 -9.910165 -7.823257 4.092692 4.108459 18.184025 -0.833149 2.489432 -5.861565 -0.641264 -0.000000 0.000000 0.000000 2.662171 -31.598823 -1.478484 3.960193 23.901100 3.187169 -6.119991 -2.665364 -7.438717 0.000000 -0.000000 -0.000000
0.223901 0.980983 0.912247 4.205668 -3.969124 0.738590 5.041465 11.766156 1.514249 2.253097 -4.871232 0.549009 1.573253 4.008918 0.635516 0.469217 9.149303 0.169987 -6.475292 3.928635 1.272057 -11.989591 7.391878 2.007896 2.025603 -3.471962 6.700936 18.510600 -31.820178 68.311413 8.273720 -1.722765 2.233652 6.513456 -1.827411 -1.121511 -0.071818 -7.471971 -7.998674 -4.970714 -9.031917 -75.058087 -18.395507 -0.072701 -3.122013 -9.804243 0.050455 4.467040 -9.855047 -7.794789 4.059918 4.175809 18.098647 -0.824835 2.397718 -5.940524 -0.569596 -0.000000 -0.000000 0.000000 2.560132 -31.464092 -1.284649 4.037432 24.428390 3.316117 -5.806467 -2.718705 -7.342433 0.000000 0.000000 0.000000
0.224573 0.981019 0.913019 4.173939 -3.904849 0.737142 4.953378 11.713555 1.490669 2.213320 -4.949330 0.540955 1.545254 3.982017 0.626689 0.461067 9.167041 0.167725 -6.448757 3.933511 1.270740 -11.940268 7.400477 2.006524 1.984781 -3.433336 6.735070 18.265583 -31.618730 68.500382 8.234193 -1.711297 2.270145 6.520841 -1.827018 -1.121925 -0.073827 -7.463995 -7.983493 -4.960711 -9.066788 -75.078431 -18.452507 -0.085134 -3.132082 -9.757150 0.028658 4.385460 -9.798694 -7.767632 4.027887 4.238970 18.013894 -0.815910 2.308137 -6.019102 -0.498373 0.000000 0.000000 -0.000000 2.445653 -31.326766 -1.081069 4.131336 24.945464 3.444778 -5.525139 -2.771187 -7.251147 -0.000000 -0.000000 0.000000
0.225249 0.981055 0.913788 4.144985 -3.839726 0.733131 4.864156 11.661084 1.468387 2.172881 -5.026464 0.533545 1.516791 3.955333 0.618173 0.452791 9.184434 0.165570 -6.421276 3.936426 1.269978 -11.889159 7.405472 2.006412 1.946501 -3.396376 6.769265 18.020305 -31.410610 68.685692 8.199322 -1.708912 2.301981 6.527247 -1.823906 -1.131880 -0.076862 -7.456010 -7.968946 -4.955340 -9.100744 -75.094669 -18.506661 -0.095173 -3.141262 -9.710355 0.008205 4.301901 -9.741545 -7.741515 3.996505 4.297236 17.929886 -0.806371 2.222443 -6.097155 -0.427482 -0.000000 0.000000 0.000000 2.312237 -31.186758 -0.863873 4.248890 25.450102 3.573007 -5.286151 -2.823519 -7.163650 0.000000 0.000000 -0.000000
0.225928 0.981091 0.914552 4.118622 -3.774110 0.726461 4.774063 11.609076 1.447496 2.131899 -5.102023 0.526797 1.487950 3.929056 0.609992 0.444413 9.201318 0.163540 -6.392834 3.936924 1.269869 -11.836224 7.406024 2.007783 1.911666 -3.361586 6.803557 17.775166 -31.195439 68.866763 8.170265 -1.718045 2.328789 6.532054 -1.817686 -1.153282 -0.081109 -7.448015 -7.955259 -4.956112 -9.133560 -75.105909 -18.557639 -0.101432 -3.149429 -9.663818 -0.010468 4.215606 -9.684037 -7.716168 3.965680 4.349898 17.846744 -0.796207 2.142389 -6.174542 -0.356818 0.000000 -0.000000 -0.000000 2.153431 -31.043903 -0.629233 4.397055 25.940120 3.700614 -5.099641 -2.876482 -7.078471 -0.000000 0.000000 0.000000
0.226611 0.981123 0.915309 4.096538 -3.707037 0.715739 4.681511 11.557042 1.428747 2.089522 -5.176950 0.521118 1.458136 3.902904 0.602355 0.435777 9.217959 0.161699 -6.362926 3.934897 1.270553 -11.780513 7.401940 2.010932 1.879489 -3.328099 6.838513 17.531503 -30.972849 69.042842 8.145751 -1.737011 2.349710 6.536115 -1.807257 -1.188013 -0.086616 -7.439697 -7.942270 -4.961538 -9.165038 -75.112943 -18.606813 -0.106760 -3.156613 -9.620179 -0.027500 4.129606 -9.627387 -7.691377 3.935941 4.395884 17.762355 -0.784606 2.068913 -6.250726 -0.286011 0.000000 -0.000000 0.000000 1.967745 -30.899945 -0.374609 4.580300 26.421536 3.828992 -4.965295 -2.926754 -6.996916 -0.000000 0.000000 -0.000000
0.227299 0.981150 0.916061 4.079996 -3.637505 0.700193 4.585196 11.504324 1.412533 2.045070 -5.252506 0.516754 1.426876 3.876494 0.595373 0.426757 9.234702 0.160066 -6.331247 3.930777 1.272028 -11.721457 7.394028 2.015830 1.848480 -3.294810 6.874466 17.289805 -30.743077 69.213952 8.123736 -1.762152 2.364728 6.540794 -1.792459 -1.235236 -0.093208 -7.430863 -7.929637 -4.969031 -9.195275 -75.117253 -18.655416 -0.114482 -3.162961 -9.581176 -0.043432 4.046651 -9.571883 -7.667305 3.907729 4.435280 17.675245 -0.771039 2.000700 -6.325533 -0.214955 0.000000 -0.000000 0.000000 1.761469 -30.755953 -0.102679 4.793844 26.900657 3.959324 -4.872037 -2.971559 -6.920212 0.000000 0.000000 -0.000000
0.227992 0.981171 0.916808 4.068178 -3.565815 0.680659 4.485810 11.451009 1.398397 1.998918 -5.328554 0.513472 1.394437 3.849866 0.588917 0.417422 9.251508 0.158596 -6.298082 3.924922 1.274175 -11.659593 7.382942 2.022207 1.818494 -3.261865 6.911115 17.049189 -30.506648 69.380683 8.104204 -1.792942 2.374762 6.546245 -1.774314 -1.292776 -0.100734 -7.421689 -7.917312 -4.978457 -9.224484 -75.118985 -18.702906 -0.123928 -3.168542 -9.545420 -0.058442 3.965558 -9.516576 -7.644246 3.880813 4.469125 17.586495 -0.755924 1.936131 -6.399372 -0.143936 -0.000000 -0.000000 0.000000 1.539837 -30.610734 0.182548 5.030749 27.375755 4.091041 -4.813807 -3.012530 -6.846706 0.000000 -0.000000 0.000000
0.228691 0.981189 0.917551 4.060266 -3.492269 0.657968 4.384044 11.397178 1.385882 1.951446 -5.404957 0.511040 1.361086 3.823059 0.582861 0.407841 9.268339 0.157243 -6.263717 3.917688 1.276873 -11.595458 7.369335 2.029787 1.789383 -3.229413 6.948160 16.808770 -30.264075 69.543629 8.087131 -1.828849 2.380725 6.552593 -1.753821 -1.358443 -0.109048 -7.412351 -7.905244 -4.989682 -9.252878 -75.118281 -18.748734 -0.134428 -3.173436 -9.511530 -0.072717 3.885134 -9.460516 -7.622493 3.854960 4.498458 17.497185 -0.739681 1.873585 -6.472644 -0.073236 -0.000000 0.000000 0.000000 1.308057 -30.463155 0.477072 5.284070 27.845076 4.223541 -4.784506 -3.051273 -6.774909 0.000000 -0.000000 0.000000
0.229395 0.981204 0.918293 4.055446 -3.417165 0.632954 4.280590 11.342906 1.374526 1.903034 -5.481583 0.509219 1.327089 3.796110 0.577075 0.398083 9.285155 0.155964 -6.228436 3.909429 1.279999 -11.529590 7.353856 2.038291 1.761003 -3.197605 6.985300 16.567667 -30.015860 69.703390 8.072488 -1.869330 2.383523 6.559938 -1.731960 -1.430040 -0.117999 -7.403025 -7.893381 -5.002570 -9.280671 -75.115286 -18.792355 -0.145316 -3.177734 -9.478128 -0.086447 3.804183 -9.402754 -7.602340 3.829933 4.524322 17.408395 -0.722731 1.811442 -6.545749 -0.003136 0.000000 0.000000 0.000000 1.071309 -30.312147 0.776906 5.546852 28.306846 4.356180 -4.777987 -3.089362 -6.703499 -0.000000 -0.000000 -0.000000
0.230104 0.981218 0.919035 4.052905 -3.340805 0.606445 4.176140 11.288265 1.363865 1.854063 -5.558299 0.507773 1.292715 3.769057 0.571431 0.388220 9.301918 0.154716 -6.192526 3.900498 1.283427 -11.462527 7.337153 2.047436 1.733209 -3.166598 7.022239 16.325002 -29.762490 69.860570 8.060235 -1.913835 2.384058 6.568348 -1.709685 -1.505355 -0.127441 -7.393887 -7.881668 -5.016988 -9.308076 -75.110142 -18.833216 -0.155930 -3.181532 -9.443842 -0.099832 3.721499 -9.342345 -7.584080 3.805494 4.547761 17.321205 -0.705502 1.748079 -6.619081 0.066088 -0.000000 0.000000 0.000000 0.834746 -30.156713 1.078072 5.812136 28.759256 4.488275 -4.788068 -3.128339 -6.631321 0.000000 0.000000 0.000000
0.230820 0.981231 0.919779 4.051833 -3.263490 0.579267 4.071388 11.233323 1.353431 1.804916 -5.634976 0.506457 1.258232 3.741936 0.565800 0.378321 9.318586 0.153457 -6.156272 3.891247 1.287028 -11.394810 7.319868 2.056935 1.705853 -3.136548 7.058680 16.079899 -29.504441 70.015773 8.050326 -1.961801 2.383223 6.577864 -1.687929 -1.582165 -0.137225 -7.385112 -7.870048 -5.032801 -9.335310 -75.102990 -18.870766 -0.165610 -3.184940 -9.407305 -0.113077 3.635870 -9.278343 -7.568003 3.781402 4.569823 17.236692 -0.688424 1.681875 -6.693031 0.134162 -0.000000 -0.000000 0.000000 0.603488 -29.995929 1.376609 6.072951 29.200472 4.619108 -4.808528 -3.169709 -6.557382 -0.000000 0.000000 0.000000
